<svg xmlns="http://www.w3.org/2000/svg" width="23" height="23" fill="none"><path fill="url(#a)" fill-rule="evenodd" d="M12.998 0h-3.25v2.31a9.157 9.157 0 0 0-3.634 1.506L4.48 2.182 2.182 4.48l1.634 1.634a9.157 9.157 0 0 0-1.507 3.635H0v3.25h2.31a9.157 9.157 0 0 0 1.506 3.634l-1.634 1.634 2.298 2.297 1.633-1.633a9.158 9.158 0 0 0 3.636 1.506v2.31h3.25v-2.31a9.158 9.158 0 0 0 3.634-1.506l1.634 1.633 2.297-2.297-1.633-1.634a9.159 9.159 0 0 0 1.506-3.635h2.31v-3.25h-2.31a9.158 9.158 0 0 0-1.506-3.635l1.633-1.633-2.297-2.298-1.634 1.634a9.157 9.157 0 0 0-3.635-1.507V0Zm-1.62 16.676a5.299 5.299 0 1 0 0-10.598 5.299 5.299 0 0 0 0 10.598Z" clip-rule="evenodd"/><defs><linearGradient id="a" x1="11.373" x2="11.373" y1="0" y2="22.747" gradientUnits="userSpaceOnUse"><stop stop-color="#F0F0F0"/><stop offset="1" stop-color="#949494"/></linearGradient></defs></svg>