<svg width="48" height="48" viewBox="0 0 48 48" fill="none" xmlns="http://www.w3.org/2000/svg">
  <circle cx="24" cy="24" r="22.5" fill="url(#paint0_linear_9_8)" stroke="#6F6F6F" stroke-width="3" />
  <path
    d="M35.8743 29.5572L31.9123 33.7134C31.8266 33.8037 31.7229 33.8758 31.6075 33.9251C31.492 33.9744 31.3675 33.9999 31.2416 34H12.4603C12.3708 34 12.2831 33.9743 12.2082 33.9263C12.1333 33.8783 12.0743 33.8099 12.0384 33.7296C12.0026 33.6493 11.9915 33.5605 12.0065 33.4741C12.0214 33.3877 12.0618 33.3074 12.1227 33.2431L16.0802 29.0869C16.1659 28.9966 16.2697 28.9246 16.3851 28.8753C16.5005 28.826 16.625 28.8005 16.7509 28.8003H35.5322C35.6226 28.7985 35.7115 28.8229 35.7878 28.8704C35.8641 28.9179 35.9243 28.9864 35.9608 29.0673C35.9974 29.1482 36.0087 29.2379 35.9933 29.3251C35.9779 29.4122 35.9365 29.493 35.8743 29.5572ZM31.9123 21.1857C31.8263 21.0958 31.7225 21.0241 31.6071 20.9748C31.4918 20.9255 31.3674 20.8998 31.2416 20.8991H12.4603C12.3708 20.8992 12.2831 20.9248 12.2082 20.9728C12.1333 21.0208 12.0743 21.0892 12.0384 21.1695C12.0026 21.2498 11.9915 21.3386 12.0065 21.425C12.0214 21.5114 12.0618 21.5917 12.1227 21.656L16.0802 25.8144C16.1662 25.9043 16.2701 25.976 16.3854 26.0253C16.5007 26.0746 16.6251 26.1003 16.7509 26.101H35.5322C35.6216 26.1005 35.7089 26.0746 35.7835 26.0264C35.8581 25.9782 35.9167 25.9098 35.9523 25.8296C35.9878 25.7494 35.9988 25.6607 35.9837 25.5745C35.9687 25.4883 35.9283 25.4083 35.8676 25.3441L31.9123 21.1857ZM12.4603 18.1998H31.2416C31.3675 18.1997 31.4921 18.1742 31.6075 18.1249C31.7229 18.0755 31.8266 18.0035 31.9123 17.9132L35.8743 13.757C35.9207 13.7089 35.9557 13.6515 35.9768 13.5886C35.9979 13.5258 36.0046 13.4592 35.9963 13.3936C35.9881 13.328 35.9651 13.2649 35.929 13.209C35.893 13.1531 35.8447 13.1057 35.7877 13.0701C35.7115 13.0226 35.6226 12.9983 35.5322 13.0001H16.7509C16.625 13.0002 16.5005 13.0257 16.3851 13.075C16.2697 13.1243 16.1659 13.1964 16.0802 13.2867L12.1227 17.4429C12.0618 17.5072 12.0214 17.5874 12.0065 17.6738C11.9915 17.7603 12.0026 17.8491 12.0384 17.9294C12.0743 18.0097 12.1333 18.0781 12.2082 18.1261C12.2831 18.1741 12.3708 18.1997 12.4603 18.1998Z"
    fill="url(#paint1_linear_9_8)" />
  <defs>
    <linearGradient id="paint0_linear_9_8" x1="24" y1="0" x2="24" y2="48" gradientUnits="userSpaceOnUse">
      <stop stop-color="#949494" />
      <stop offset="1" stop-color="#DFDFDF" />
    </linearGradient>
    <linearGradient id="paint1_linear_9_8" x1="12" y1="11.3421" x2="24.2454" y2="33.8666"
      gradientUnits="userSpaceOnUse">
      <stop stop-color="#929292" />
      <stop offset="1" stop-color="#585858" />
    </linearGradient>
  </defs>
</svg>