<svg xmlns="http://www.w3.org/2000/svg" width="48" height="48" fill="none"><circle cx="24" cy="24" r="22.5" fill="url(#a)" stroke="#6F6F6F" stroke-width="3"/><path fill="url(#b)" d="m35.874 29.557-3.962 4.156a.916.916 0 0 1-.67.287H12.46a.468.468 0 0 1-.422-.27.442.442 0 0 1 .085-.487l3.957-4.156a.917.917 0 0 1 .67-.287h18.782a.466.466 0 0 1 .429.267.44.44 0 0 1-.087.49Zm-3.962-8.371a.925.925 0 0 0-.67-.287H12.46a.469.469 0 0 0-.422.27.442.442 0 0 0 .085.487l3.957 4.158a.926.926 0 0 0 .67.287h18.782a.468.468 0 0 0 .42-.271.442.442 0 0 0-.084-.486l-3.956-4.158ZM12.46 18.2h18.782a.934.934 0 0 0 .67-.287l3.962-4.156a.448.448 0 0 0 .122-.363.441.441 0 0 0-.208-.324.466.466 0 0 0-.256-.07H16.751a.933.933 0 0 0-.67.287l-3.958 4.156a.446.446 0 0 0 .085.683.469.469 0 0 0 .252.074Z"/><defs><linearGradient id="a" x1="24" x2="24" y1="0" y2="48" gradientUnits="userSpaceOnUse"><stop stop-color="#949494"/><stop offset="1" stop-color="#DFDFDF"/></linearGradient><linearGradient id="b" x1="12" x2="24.245" y1="11.342" y2="33.867" gradientUnits="userSpaceOnUse"><stop stop-color="#929292"/><stop offset="1" stop-color="#585858"/></linearGradient></defs></svg>