<svg xmlns="http://www.w3.org/2000/svg" width="14" height="14" fill="none"><path fill="url(#a)" d="M11.5 3.063v10.124a.562.562 0 0 1-.563.563H.813a.562.562 0 0 1-.563-.563V3.063A.563.563 0 0 1 .813 2.5h10.124a.562.562 0 0 1 .563.563ZM13.188.25H3.062a.563.563 0 0 0 0 1.125h9.563v9.563a.562.562 0 1 0 1.125 0V.812a.562.562 0 0 0-.563-.562Z"/><defs><linearGradient id="a" x1="7" x2="7" y1=".25" y2="13.75" gradientUnits="userSpaceOnUse"><stop stop-color="#F0F0F0"/><stop offset="1" stop-color="#949494"/></linearGradient></defs></svg>