<svg xmlns="http://www.w3.org/2000/svg" width="23" height="23" fill="none"><g clip-path="url(#a)"><circle cx="11.373" cy="11.373" r="11.373" fill="#2D2D2D"/><path fill="#727272" d="M10.418 18.203V4.94h1.907v13.263h-1.907Zm3.03-9.02a1.414 1.414 0 0 0-.61-1.057c-.356-.252-.819-.378-1.389-.378-.4 0-.744.06-1.03.181-.287.121-.507.285-.659.493-.152.207-.23.443-.233.71 0 .22.05.412.15.574.104.163.244.3.42.415.176.11.371.204.585.28.214.076.43.14.648.191l.995.249c.4.093.786.22 1.155.378.373.16.706.36 1 .601.297.242.532.534.704.876.173.342.26.742.26 1.202 0 .621-.16 1.169-.477 1.642-.318.47-.777.838-1.378 1.104-.598.262-1.321.393-2.17.393-.826 0-1.543-.128-2.15-.383-.605-.256-1.079-.629-1.42-1.12-.339-.49-.522-1.087-.55-1.792H9.19c.028.37.142.677.342.922.2.246.461.429.783.55.324.12.687.18 1.088.18.417 0 .784-.061 1.098-.186.318-.127.566-.303.746-.528.18-.228.271-.494.274-.798a1.015 1.015 0 0 0-.243-.684 1.784 1.784 0 0 0-.668-.456 6.43 6.43 0 0 0-.995-.331l-1.207-.311c-.874-.224-1.565-.565-2.072-1.02-.505-.46-.757-1.07-.757-1.83 0-.625.17-1.172.508-1.642.342-.47.806-.834 1.393-1.093.588-.262 1.252-.394 1.995-.394.753 0 1.413.132 1.98.394.569.26 1.016.62 1.34 1.083.326.46.493.988.504 1.585h-1.85Z"/></g><defs><clipPath id="a"><path fill="#fff" d="M0 0h22.747v22.747H0z"/></clipPath></defs></svg>