<svg xmlns="http://www.w3.org/2000/svg" width="18" height="18" fill="none"><path fill="url(#a)" d="m16.71 8.273-5.625 5.625a.562.562 0 0 1-.96-.398v-2.796c-4.015.227-6.768 2.831-7.54 3.656a.844.844 0 0 1-1.454-.674c.26-2.268 1.503-4.45 3.498-6.143 1.658-1.406 3.672-2.298 5.496-2.454V2.25a.562.562 0 0 1 .96-.398l5.625 5.625a.562.562 0 0 1 0 .796Z"/><defs><linearGradient id="a" x1="9" x2="9" y1="1.687" y2="14.627" gradientUnits="userSpaceOnUse"><stop stop-color="#828282"/><stop offset="1" stop-color="#454545"/></linearGradient></defs></svg>