<svg width="18" height="18" viewBox="0 0 18 18" fill="none" xmlns="http://www.w3.org/2000/svg">
  <path
    d="M16.7104 8.27297L11.0854 13.898C11.0068 13.9767 10.9065 14.0304 10.7973 14.0521C10.6881 14.0739 10.575 14.0627 10.4721 14.0201C10.3693 13.9775 10.2814 13.9053 10.2196 13.8127C10.1578 13.7202 10.1249 13.6113 10.125 13.5V10.7037C6.11011 10.9315 3.35738 13.5352 2.58464 14.3599C2.46331 14.4895 2.30419 14.5775 2.12994 14.6114C1.95568 14.6453 1.77517 14.6234 1.61409 14.5488C1.45301 14.4742 1.31957 14.3507 1.23276 14.1958C1.14595 14.041 1.1102 13.8627 1.13058 13.6863C1.39144 11.418 2.63386 9.23625 4.62933 7.54313C6.2866 6.13688 8.30105 5.24461 10.125 5.08852V2.25C10.1249 2.13868 10.1578 2.02984 10.2196 1.93726C10.2814 1.84468 10.3693 1.77251 10.4721 1.7299C10.575 1.68729 10.6881 1.67615 10.7973 1.69789C10.9065 1.71963 11.0068 1.77328 11.0854 1.85203L16.7104 7.47703C16.7627 7.52927 16.8042 7.59131 16.8325 7.6596C16.8608 7.72788 16.8754 7.80108 16.8754 7.875C16.8754 7.94892 16.8608 8.02212 16.8325 8.0904C16.8042 8.15869 16.7627 8.22073 16.7104 8.27297Z"
    fill="url(#paint0_linear_9_60)" />
  <defs>
    <linearGradient id="paint0_linear_9_60" x1="9.0002" y1="1.68706" x2="9.0002" y2="14.627"
      gradientUnits="userSpaceOnUse">
      <stop stop-color="#828282" />
      <stop offset="1" stop-color="#454545" />
    </linearGradient>
  </defs>
</svg>