<svg xmlns="http://www.w3.org/2000/svg" width="50" height="50" fill="none">
  <g clip-path="url(#a)">
    <path fill="url(#b)"
      d="M3.488 35.445a77.099 77.099 0 0 1-.601-1.465c-1.473-3.714.375-7.066 2.023-10.347l2.39-4.75a5.804 5.804 0 0 1 2.126-2.324l6.875-4.266 6.793-7.023c.421-.438.96-.746 1.55-.887l4.626-1.117c2.238-.536 3.199-.45 3.921.578 2.504 3.554 4.18 6.48 6.41 10.023 1.215 1.93 4.02 6.363 4.196 6.656.539.907.32 1.665.3 2.704a18.33 18.33 0 0 0 1.25 7.03c.262.665.563 1.321.7 2.02.125.63-.043 4.625-.172 5.977-.105 1.098-2.7 5.195-3.629 5.691-1.023.547-8.61 3.336-10.285 3.813-1.676.476-8.941-1.184-12.715-1.762-2.332-.355-4.668-.715-7-1.07-2.023-.309-4.035-.074-5.168-2.117a75.355 75.355 0 0 1-3.59-7.364Z" />
    <path fill="url(#c)"
      d="M12.242 44.922c2.332.355 4.668.715 7 1.07 1.215.188 2.793.485 4.43.79-1.102-1.305-2.746-2.852-3.848-4.157-.238-.281-.48-.574-.566-.934-.09-.382.012-.777.117-1.156.336-1.242.422-2.59.758-3.832-2.082.484-6.88 1.406-7.274 1.293-.437-.125-.793-.441-1.133-.75-2.472-2.258-4.406-4.535-6.296-7.289-.223-.324-.45-.66-.532-1.047-.078-.363-.02-.738.04-1.101.14-.907.453-3.418.703-5.633l-.735 1.457c-1.644 3.281-3.492 6.633-2.015 10.348a75.19 75.19 0 0 0 4.184 8.82c1.128 2.047 3.144 1.812 5.167 2.12Z" />
    <path fill="url(#d)"
      d="M33.223 3.887c-.48-.567-1.418-.457-2.403.441l-3.539 3.54a1.074 1.074 0 0 0-.316.827l.379 7.227c.011.242.101.469.258.652 1.257 1.469 5.703 8.527 6.992 8.527 1.285 0 3.531-5.007 4.676-4.98a9.44 9.44 0 0 1 2.21.371c.93.281 1.294-.996 1.102-1.902-.96-1.524-2.254-3.567-2.98-4.723-2.223-3.527-3.895-6.445-6.38-9.98Z" />
    <path fill="url(#e)"
      d="M16.754 18.113c1.3-.195 5.64-.933 6.457-1.254 1.594-.629 3-3.308 3.93-4.75 0 0 .32 4.7 0 6.536-.223 1.277-1.063 7.957-1.907 9.558l-5.101 8.5-7.496-7.496c-.637-.637-1.043-.973-1.274-1.875-.527-2.063-1.484-5.105-1.488-6.898-.004-1.793 4.828-2.016 6.879-2.32Z" />
    <path fill="url(#f)"
      d="M26.234 8.102c-.5-.598-.64-1.446-.468-2.204.144-.632 1.457-1.855 1.882-2.242l-3.003.727a3.21 3.21 0 0 0-1.551.887L16.3 12.293s6.578-2.742 9.933-4.191Z" />
    <path fill="url(#g)"
      d="M45.344 30.258a18.117 18.117 0 0 1-1.196-5.23c-2.242 1.535-3.496 3.527-7.105 4.015-.957.129-2.438.309-3.371.555-1.156.304-2.227 1.16-3.961 1.32-1.234.117-4.348.027-3.879.723.469.695 3.262 2.097 3.957 2.664.988.793 1.848 1.726 2.672 2.687.43.504 1.074 1.727 1.824 2.059a.83.83 0 0 0 .598.047c.355-.106.64-.364.918-.61a36.88 36.88 0 0 1 8.972-5.867c.348-.16.723-.34.895-.684.074-.152.105-.359.11-.582-.137-.367-.29-.73-.434-1.097Z" />
    <path fill="url(#h)"
      d="M46.043 32.277a5.628 5.628 0 0 0-.211-.75c-.066.23-.21.485-.523.723-.899.688-4.364 1.746-8.176 5.086-2.489 2.18-2.492 2.473-3.028 4.875-.874 3.934-2.265 5.363-2.53 5.605.144-.015.273-.035.378-.066 1.68-.473 9.262-3.266 10.285-3.813.93-.496 3.524-4.593 3.63-5.69.132-1.345.3-5.34.175-5.97Z" />
    <path fill="url(#i)" d="M-4.861-2.778h60.417v57.639H-4.861z" style="mix-blend-mode:color" />
  </g>
  <defs>
    <linearGradient id="b" x1="34.225" x2="16.23" y1="8.219" y2="53.939" gradientUnits="userSpaceOnUse">
      <stop stop-color="#9E958E" />
      <stop offset=".46" stop-color="#8E8884" />
      <stop offset="1" stop-color="#757575" />
    </linearGradient>
    <linearGradient id="c" x1="3.461" x2="18.426" y1="46.928" y2="30.288" gradientUnits="userSpaceOnUse">
      <stop stop-color="#37474F" />
      <stop offset=".612" stop-color="#42565F" stop-opacity=".192" />
      <stop offset=".757" stop-color="#455A64" stop-opacity="0" />
    </linearGradient>
    <linearGradient id="d" x1="38.888" x2="29.21" y1="26.055" y2="4.588" gradientUnits="userSpaceOnUse">
      <stop stop-color="#9E958E" />
      <stop offset=".442" stop-color="#AEA298" />
      <stop offset="1" stop-color="#C9B8A9" />
    </linearGradient>
    <linearGradient id="e" x1="14.649" x2="18.555" y1="40.838" y2="19.646" gradientUnits="userSpaceOnUse">
      <stop stop-color="#4C5C64" />
      <stop offset="1" stop-color="#455A64" stop-opacity="0" />
    </linearGradient>
    <linearGradient id="f" x1="16.302" x2="27.649" y1="7.975" y2="7.975" gradientUnits="userSpaceOnUse">
      <stop stop-color="#4C5C64" />
      <stop offset="1" stop-color="#455A64" stop-opacity="0" />
    </linearGradient>
    <linearGradient id="g" x1="34.086" x2="47.506" y1="29.925" y2="35.456" gradientUnits="userSpaceOnUse">
      <stop stop-color="#9E958E" />
      <stop offset=".25" stop-color="#AEA298" />
      <stop offset=".566" stop-color="#C9B8A9" />
    </linearGradient>
    <linearGradient id="h" x1="40.877" x2="38.127" y1="48.186" y2="37.339" gradientUnits="userSpaceOnUse">
      <stop stop-color="#37474F" />
      <stop offset=".808" stop-color="#42565F" stop-opacity=".192" />
      <stop offset="1" stop-color="#455A64" stop-opacity="0" />
    </linearGradient>
    <linearGradient id="i" x1="25.347" x2="25.347" y1="-2.778" y2="54.861" gradientUnits="userSpaceOnUse">
      <stop stop-color="#D9D9D9" />
      <stop offset="1" stop-color="#fff" />
    </linearGradient>
    <clipPath id="a">
      <path fill="#fff" d="M0 0h50v50H0z" />
    </clipPath>
  </defs>
</svg>