<svg xmlns="http://www.w3.org/2000/svg" width="26" height="26" fill="none"><path fill="url(#a)" d="M1.357 21.175a24.133 24.133 0 0 1-.189-.459c-.46-1.163.118-2.212.634-3.239l.748-1.487c.15-.3.382-.551.665-.727l2.152-1.336 2.127-2.198a.996.996 0 0 1 .485-.278l1.448-.35c.7-.167 1.002-.14 1.228.181.784 1.113 1.308 2.029 2.007 3.138.38.604 1.258 1.992 1.313 2.084.169.284.1.52.094.846-.015.75.117 1.503.391 2.201.082.208.176.413.22.632.038.197-.014 1.448-.055 1.871-.033.344-.845 1.627-1.136 1.782-.32.171-2.695 1.044-3.22 1.193-.524.15-2.798-.37-3.98-.551l-2.19-.335c-.634-.097-1.264-.024-1.619-.663a23.592 23.592 0 0 1-1.123-2.305Z"/><path fill="url(#b)" d="M4.097 24.142c.73.11 1.461.223 2.191.335.38.058.874.151 1.387.247-.345-.409-.86-.893-1.205-1.301-.074-.088-.15-.18-.177-.293-.028-.12.004-.243.037-.362.105-.389.132-.81.237-1.2-.652.152-2.153.441-2.277.405-.137-.039-.248-.138-.355-.234a12.705 12.705 0 0 1-1.97-2.282.944.944 0 0 1-.167-.328.936.936 0 0 1 .012-.345c.044-.283.142-1.07.22-1.763l-.23.456c-.514 1.027-1.093 2.076-.63 3.24a23.537 23.537 0 0 0 1.31 2.761c.352.64.983.567 1.617.664Z"/><path fill="url(#c)" d="M10.665 11.296c-.15-.178-.444-.143-.752.138l-1.108 1.108a.337.337 0 0 0-.1.26l.12 2.261a.338.338 0 0 0 .08.204c.394.46 1.785 2.67 2.189 2.67.402 0 1.105-1.568 1.464-1.56.06.002.38.022.692.117.29.088.405-.312.345-.595l-.934-1.479c-.695-1.104-1.219-2.018-1.996-3.124Z"/><path fill="url(#d)" d="M5.51 15.75c.406-.062 1.765-.293 2.02-.393.5-.197.94-1.036 1.23-1.487 0 0 .101 1.47 0 2.046-.069.4-.332 2.49-.596 2.992l-1.597 2.66-2.347-2.346c-.199-.2-.326-.304-.398-.587-.165-.646-.465-1.598-.466-2.16-.001-.56 1.511-.63 2.153-.726Z"/><path fill="url(#e)" d="M8.477 12.615a.807.807 0 0 1-.147-.69c.046-.198.456-.58.59-.701l-.94.227a1.006 1.006 0 0 0-.486.278l-2.127 2.198s2.06-.858 3.11-1.312Z"/><path fill="url(#f)" d="M14.46 19.551a5.673 5.673 0 0 1-.375-1.637c-.702.48-1.095 1.104-2.224 1.257-.3.04-.764.096-1.056.173-.362.096-.697.364-1.24.414-.386.036-1.36.008-1.214.226.147.218 1.021.657 1.239.834.31.248.578.54.836.841.135.158.336.54.571.645a.26.26 0 0 0 .187.014c.112-.033.2-.113.288-.19a11.542 11.542 0 0 1 2.809-1.837c.108-.05.226-.107.28-.214a.449.449 0 0 0 .034-.182c-.043-.115-.09-.229-.136-.344Z"/><path fill="url(#g)" d="M14.678 20.183a1.763 1.763 0 0 0-.066-.235.432.432 0 0 1-.164.227c-.281.215-1.366.546-2.56 1.592-.778.682-.78.774-.947 1.526-.274 1.231-.71 1.679-.792 1.755a.693.693 0 0 0 .118-.021c.526-.148 2.9-1.022 3.22-1.194.291-.155 1.103-1.438 1.136-1.781.042-.42.094-1.672.055-1.869Z"/><path fill="url(#h)" d="M6.356 12.175a24.133 24.133 0 0 1-.188-.459c-.46-1.162.118-2.212.634-3.239L7.55 6.99c.15-.3.381-.551.665-.727l2.152-1.336 2.127-2.198a.996.996 0 0 1 .485-.278l1.448-.35c.7-.167 1.002-.14 1.228.181.784 1.113 1.308 2.029 2.007 3.138.38.604 1.258 1.992 1.313 2.084.169.283.1.52.094.846-.015.75.117 1.503.391 2.201.082.208.176.413.22.632.038.197-.014 1.448-.055 1.871-.033.344-.845 1.627-1.136 1.782-.32.171-2.695 1.044-3.22 1.193-.524.15-2.798-.37-3.98-.551l-2.19-.335c-.634-.097-1.264-.024-1.619-.663a23.592 23.592 0 0 1-1.124-2.305Z"/><path fill="url(#i)" d="M9.097 15.142c.73.11 1.461.223 2.191.335.38.058.874.151 1.387.247-.345-.409-.86-.893-1.205-1.301-.074-.088-.15-.18-.177-.293-.028-.12.004-.243.037-.362.105-.389.132-.81.237-1.2-.652.152-2.153.441-2.277.405-.137-.039-.248-.138-.355-.234a12.705 12.705 0 0 1-1.97-2.282.944.944 0 0 1-.167-.328.936.936 0 0 1 .012-.345c.044-.283.142-1.07.22-1.763l-.23.456c-.514 1.027-1.093 2.076-.63 3.24a23.537 23.537 0 0 0 1.31 2.761c.352.64.983.567 1.617.664Z"/><path fill="url(#j)" d="M15.665 2.296c-.15-.178-.444-.143-.752.138l-1.108 1.108a.337.337 0 0 0-.1.26l.12 2.261a.339.339 0 0 0 .08.205c.394.46 1.785 2.669 2.189 2.669.402 0 1.105-1.568 1.464-1.56.06.002.38.022.692.117.29.088.404-.312.345-.596-.301-.476-.706-1.116-.933-1.478-.696-1.104-1.22-2.018-1.997-3.124Z"/><path fill="url(#k)" d="M10.51 6.75c.406-.062 1.765-.293 2.02-.393.5-.197.94-1.036 1.23-1.487 0 0 .101 1.47 0 2.046-.069.4-.332 2.49-.596 2.992l-1.597 2.66-2.347-2.346c-.199-.2-.326-.304-.398-.587-.165-.645-.465-1.598-.466-2.16-.001-.56 1.511-.63 2.153-.726Z"/><path fill="url(#l)" d="M13.477 3.615a.807.807 0 0 1-.147-.69c.046-.198.456-.58.59-.701l-.94.227a1.006 1.006 0 0 0-.486.278l-2.127 2.198s2.06-.858 3.11-1.312Z"/><path fill="url(#m)" d="M19.46 10.551a5.673 5.673 0 0 1-.375-1.637c-.702.48-1.095 1.104-2.224 1.257-.3.04-.764.096-1.056.173-.362.096-.697.364-1.24.414-.386.036-1.36.008-1.214.226.147.218 1.021.657 1.239.834.31.248.578.54.836.841.135.158.336.54.571.645a.26.26 0 0 0 .187.014c.112-.033.2-.113.288-.19a11.542 11.542 0 0 1 2.809-1.837c.108-.05.226-.107.28-.214a.449.449 0 0 0 .034-.182c-.043-.115-.09-.229-.136-.344Z"/><path fill="url(#n)" d="M19.678 11.183a1.763 1.763 0 0 0-.066-.235.432.432 0 0 1-.164.227c-.281.215-1.366.546-2.56 1.592-.778.682-.78.774-.947 1.526-.274 1.231-.71 1.679-.792 1.755a.693.693 0 0 0 .118-.021c.526-.148 2.9-1.022 3.22-1.194.291-.155 1.103-1.438 1.136-1.781.041-.42.094-1.672.055-1.869Z"/><path fill="url(#o)" d="M12.357 21.175a23.936 23.936 0 0 1-.189-.459c-.46-1.163.118-2.212.634-3.239l.748-1.487c.15-.3.381-.551.665-.727l2.152-1.336 2.127-2.198a.996.996 0 0 1 .485-.278l1.448-.35c.7-.167 1.002-.14 1.228.181.784 1.113 1.308 2.029 2.006 3.138.38.604 1.259 1.992 1.314 2.084.169.284.1.52.094.846-.015.75.117 1.503.391 2.201.082.208.176.413.22.632.038.197-.014 1.448-.055 1.871-.033.344-.845 1.627-1.136 1.782-.32.171-2.695 1.044-3.22 1.193-.524.15-2.798-.37-3.98-.551l-2.19-.335c-.634-.097-1.264-.024-1.619-.663a23.587 23.587 0 0 1-1.123-2.305Z"/><path fill="url(#p)" d="M15.097 24.142c.73.11 1.461.223 2.191.335.38.058.875.151 1.387.247-.345-.409-.86-.893-1.205-1.301-.074-.088-.15-.18-.177-.293-.028-.12.004-.243.037-.362.105-.389.132-.81.237-1.2-.652.152-2.153.441-2.277.405-.137-.039-.248-.138-.355-.234a12.709 12.709 0 0 1-1.97-2.282.945.945 0 0 1-.167-.328.936.936 0 0 1 .012-.345c.044-.283.142-1.07.22-1.763l-.23.456c-.514 1.027-1.093 2.076-.63 3.24a23.533 23.533 0 0 0 1.31 2.761c.352.64.983.567 1.617.664Z"/><path fill="url(#q)" d="M21.665 11.296c-.15-.178-.444-.143-.752.138l-1.108 1.108a.337.337 0 0 0-.1.26l.12 2.261a.339.339 0 0 0 .08.204c.394.46 1.785 2.67 2.189 2.67.402 0 1.105-1.568 1.464-1.56.06.002.38.022.692.117.29.088.404-.312.345-.595-.301-.477-.706-1.117-.933-1.479-.696-1.104-1.22-2.018-1.997-3.124Z"/><path fill="url(#r)" d="M16.51 15.75c.406-.062 1.765-.293 2.02-.393.5-.197.94-1.036 1.23-1.487 0 0 .101 1.47 0 2.046-.069.4-.332 2.49-.596 2.992l-1.597 2.66-2.347-2.346c-.199-.2-.326-.304-.398-.587-.165-.646-.465-1.598-.466-2.16-.001-.56 1.511-.63 2.153-.726Z"/><path fill="url(#s)" d="M19.477 12.615a.807.807 0 0 1-.147-.69c.046-.198.456-.58.59-.701l-.94.227a1.005 1.005 0 0 0-.486.278l-2.127 2.198s2.06-.858 3.11-1.312Z"/><path fill="url(#t)" d="M25.46 19.551a5.673 5.673 0 0 1-.375-1.637c-.702.48-1.095 1.104-2.224 1.257-.3.04-.764.096-1.056.173-.362.096-.697.364-1.24.414-.386.036-1.36.008-1.214.226.147.218 1.021.657 1.239.834.31.248.578.54.836.841.135.158.337.54.571.645a.26.26 0 0 0 .187.014c.112-.033.2-.113.288-.19a11.542 11.542 0 0 1 2.809-1.837c.108-.05.226-.107.28-.214a.449.449 0 0 0 .034-.182c-.043-.115-.09-.229-.136-.344Z"/><path fill="url(#u)" d="M25.678 20.183a1.763 1.763 0 0 0-.066-.235.432.432 0 0 1-.164.227c-.281.215-1.366.546-2.56 1.592-.778.682-.78.774-.947 1.526-.274 1.231-.71 1.679-.792 1.755a.693.693 0 0 0 .118-.021c.526-.148 2.9-1.022 3.22-1.194.291-.155 1.103-1.438 1.136-1.781.041-.42.094-1.672.055-1.869Z"/><defs><linearGradient id="a" x1="10.978" x2="5.345" y1="12.652" y2="26.964" gradientUnits="userSpaceOnUse"><stop stop-color="#FC52FF"/><stop offset=".46" stop-color="#C861CB"/><stop offset="1" stop-color="#A36DA4"/></linearGradient><linearGradient id="b" x1="1.348" x2="6.033" y1="24.77" y2="19.56" gradientUnits="userSpaceOnUse"><stop stop-color="#8B4E8C"/><stop offset=".612" stop-color="#A85CA9"/><stop offset=".757" stop-color="#AD60AE" stop-opacity=".45"/></linearGradient><linearGradient id="c" x1="12.438" x2="9.409" y1="18.235" y2="11.515" gradientUnits="userSpaceOnUse"><stop stop-color="#E471E6"/><stop offset=".442" stop-color="#F96DFB"/><stop offset="1" stop-color="#FD8BFF"/></linearGradient><linearGradient id="d" x1="4.85" x2="6.265" y1="22.863" y2="15.079" gradientUnits="userSpaceOnUse"><stop stop-color="#A04BA2"/><stop offset="1" stop-color="#D65AD9" stop-opacity=".5"/></linearGradient><linearGradient id="e" x1="5.368" x2="8.92" y1="12.576" y2="12.576" gradientUnits="userSpaceOnUse"><stop stop-color="#BA24BD"/><stop offset="1" stop-color="#E341E6" stop-opacity=".32"/></linearGradient><linearGradient id="f" x1="10.935" x2="15.136" y1="19.447" y2="21.178" gradientUnits="userSpaceOnUse"><stop stop-color="#D370D5"/><stop offset=".25" stop-color="#E281E4"/><stop offset=".566" stop-color="#F397F5"/></linearGradient><linearGradient id="g" x1="13.061" x2="12.2" y1="25.163" y2="21.768" gradientUnits="userSpaceOnUse"><stop stop-color="#8E528F"/><stop offset=".808" stop-color="#AA61AC"/><stop offset="1" stop-color="#C06AC2"/></linearGradient><linearGradient id="h" x1="15.978" x2="10.345" y1="3.652" y2="17.964" gradientUnits="userSpaceOnUse"><stop stop-color="#FC52FF"/><stop offset=".46" stop-color="#C861CB"/><stop offset="1" stop-color="#A36DA4"/></linearGradient><linearGradient id="i" x1="6.348" x2="11.033" y1="15.77" y2="10.56" gradientUnits="userSpaceOnUse"><stop stop-color="#8B4E8C"/><stop offset=".612" stop-color="#A85CA9"/><stop offset=".757" stop-color="#AD60AE" stop-opacity=".45"/></linearGradient><linearGradient id="j" x1="17.438" x2="14.409" y1="9.236" y2="2.515" gradientUnits="userSpaceOnUse"><stop stop-color="#E471E6"/><stop offset=".442" stop-color="#F96DFB"/><stop offset="1" stop-color="#FD8BFF"/></linearGradient><linearGradient id="k" x1="9.85" x2="11.264" y1="13.863" y2="6.079" gradientUnits="userSpaceOnUse"><stop stop-color="#A04BA2"/><stop offset="1" stop-color="#D65AD9" stop-opacity=".5"/></linearGradient><linearGradient id="l" x1="10.368" x2="13.92" y1="3.576" y2="3.576" gradientUnits="userSpaceOnUse"><stop stop-color="#BA24BD"/><stop offset="1" stop-color="#E341E6" stop-opacity=".32"/></linearGradient><linearGradient id="m" x1="15.935" x2="20.136" y1="10.447" y2="12.178" gradientUnits="userSpaceOnUse"><stop stop-color="#D370D5"/><stop offset=".25" stop-color="#E281E4"/><stop offset=".566" stop-color="#F397F5"/></linearGradient><linearGradient id="n" x1="18.061" x2="17.2" y1="16.163" y2="12.768" gradientUnits="userSpaceOnUse"><stop stop-color="#8E528F"/><stop offset=".808" stop-color="#AA61AC"/><stop offset="1" stop-color="#C06AC2"/></linearGradient><linearGradient id="o" x1="21.978" x2="16.345" y1="12.652" y2="26.964" gradientUnits="userSpaceOnUse"><stop stop-color="#FC52FF"/><stop offset=".46" stop-color="#C861CB"/><stop offset="1" stop-color="#A36DA4"/></linearGradient><linearGradient id="p" x1="12.348" x2="17.033" y1="24.77" y2="19.56" gradientUnits="userSpaceOnUse"><stop stop-color="#8B4E8C"/><stop offset=".612" stop-color="#A85CA9"/><stop offset=".757" stop-color="#AD60AE" stop-opacity=".45"/></linearGradient><linearGradient id="q" x1="23.438" x2="20.409" y1="18.235" y2="11.515" gradientUnits="userSpaceOnUse"><stop stop-color="#E471E6"/><stop offset=".442" stop-color="#F96DFB"/><stop offset="1" stop-color="#FD8BFF"/></linearGradient><linearGradient id="r" x1="15.85" x2="17.265" y1="22.863" y2="15.079" gradientUnits="userSpaceOnUse"><stop stop-color="#A04BA2"/><stop offset="1" stop-color="#D65AD9" stop-opacity=".5"/></linearGradient><linearGradient id="s" x1="16.368" x2="19.92" y1="12.576" y2="12.576" gradientUnits="userSpaceOnUse"><stop stop-color="#BA24BD"/><stop offset="1" stop-color="#E341E6" stop-opacity=".32"/></linearGradient><linearGradient id="t" x1="21.935" x2="26.136" y1="19.447" y2="21.178" gradientUnits="userSpaceOnUse"><stop stop-color="#D370D5"/><stop offset=".25" stop-color="#E281E4"/><stop offset=".566" stop-color="#F397F5"/></linearGradient><linearGradient id="u" x1="24.061" x2="23.2" y1="25.163" y2="21.768" gradientUnits="userSpaceOnUse"><stop stop-color="#8E528F"/><stop offset=".808" stop-color="#AA61AC"/><stop offset="1" stop-color="#C06AC2"/></linearGradient></defs></svg>