<svg xmlns="http://www.w3.org/2000/svg" width="26" height="26" fill="none"><path fill="url(#a)" d="M1.814 18.432a40.063 40.063 0 0 1-.313-.762c-.766-1.932.195-3.675 1.052-5.38l1.243-2.47a3.02 3.02 0 0 1 1.105-1.21l3.575-2.218L12.01 2.74c.219-.227.499-.387.806-.46l2.405-.582c1.164-.278 1.664-.233 2.04.3 1.302 1.85 2.173 3.37 3.333 5.213.631 1.003 2.09 3.309 2.181 3.461.28.471.167.865.157 1.406a9.532 9.532 0 0 0 .65 3.656c.136.345.292.687.363 1.05.065.327-.022 2.405-.089 3.108-.055.57-1.404 2.702-1.887 2.96-.532.284-4.477 1.734-5.348 1.982-.872.248-4.65-.615-6.612-.916l-3.64-.557c-1.052-.16-2.098-.038-2.687-1.1a39.196 39.196 0 0 1-1.867-3.83Z"/><path fill="url(#b)" d="M6.366 23.36c1.213.184 2.427.371 3.64.556.632.097 1.452.252 2.303.41-.572-.678-1.428-1.483-2-2.161-.124-.146-.25-.299-.295-.485-.047-.2.006-.405.061-.602.175-.646.22-1.346.394-1.992-1.083.252-3.577.73-3.782.672-.228-.065-.412-.23-.59-.39-1.285-1.174-2.29-2.358-3.274-3.79-.115-.169-.233-.344-.276-.545-.04-.189-.01-.384.02-.572a98.17 98.17 0 0 0 .366-2.93l-.382.758c-.855 1.706-1.816 3.45-1.048 5.38a39.099 39.099 0 0 0 2.175 4.587c.588 1.065 1.636.943 2.688 1.103Z"/><path fill="url(#c)" d="M17.276 2.021c-.25-.294-.738-.238-1.25.23l-1.84 1.84a.56.56 0 0 0-.164.43l.197 3.758a.562.562 0 0 0 .134.34c.654.763 2.965 4.434 3.636 4.434.668 0 1.836-2.604 2.431-2.59.102.002.632.035 1.15.193.483.146.672-.518.573-.99-.5-.791-1.172-1.854-1.55-2.455-1.156-1.834-2.025-3.352-3.317-5.19Z"/><path fill="url(#d)" d="M8.712 9.419c.676-.102 2.933-.486 3.358-.652.828-.327 1.56-1.72 2.043-2.47 0 0 .167 2.443 0 3.398-.116.664-.552 4.138-.991 4.97l-2.653 4.42-3.898-3.897c-.331-.331-.542-.506-.662-.975-.274-1.073-.772-2.655-.774-3.587-.002-.933 2.51-1.049 3.577-1.207Z"/><path fill="url(#e)" d="M13.642 4.213c-.26-.311-.333-.752-.244-1.146.075-.329.758-.965.98-1.166l-1.563.378a1.67 1.67 0 0 0-.806.461L8.476 6.392s3.421-1.426 5.166-2.18Z"/><path fill="url(#f)" d="M23.579 15.734a9.42 9.42 0 0 1-.622-2.72c-1.166.799-1.818 1.834-3.695 2.088-.497.067-1.267.16-1.753.289-.6.158-1.157.603-2.06.686-.641.061-2.26.014-2.016.376.243.362 1.696 1.09 2.057 1.385.514.413.961.898 1.39 1.398.223.262.558.898.948 1.07.1.045.205.057.311.025.185-.055.333-.19.477-.317a19.174 19.174 0 0 1 4.666-3.051c.181-.083.376-.177.465-.355a.744.744 0 0 0 .057-.303c-.07-.191-.15-.38-.225-.571Z"/><path fill="url(#g)" d="M23.942 16.784a2.93 2.93 0 0 0-.11-.39.716.716 0 0 1-.271.376c-.468.358-2.27.908-4.252 2.645-1.294 1.133-1.296 1.286-1.574 2.535-.455 2.045-1.178 2.789-1.316 2.915a1.28 1.28 0 0 0 .197-.035c.873-.246 4.816-1.698 5.348-1.982.483-.258 1.832-2.39 1.887-2.96.069-.699.156-2.777.091-3.104Z"/><defs><linearGradient id="a" x1="17.797" x2="8.439" y1="4.274" y2="28.048" gradientUnits="userSpaceOnUse"><stop stop-color="#4F9B5B"/><stop offset=".46" stop-color="#50AF5F"/><stop offset="1" stop-color="#54A060"/></linearGradient><linearGradient id="b" x1="1.799" x2="9.582" y1="24.403" y2="15.749" gradientUnits="userSpaceOnUse"><stop stop-color="#368543"/><stop offset=".612" stop-color="#479D55"/><stop offset=".757" stop-color="#489E56" stop-opacity=".31"/></linearGradient><linearGradient id="c" x1="20.222" x2="15.189" y1="13.549" y2="2.386" gradientUnits="userSpaceOnUse"><stop stop-color="#61C772"/><stop offset=".442" stop-color="#63D275"/><stop offset="1" stop-color="#6FEB83"/></linearGradient><linearGradient id="d" x1="7.618" x2="9.649" y1="21.236" y2="10.216" gradientUnits="userSpaceOnUse"><stop stop-color="#368F45"/><stop offset="1" stop-color="#47B158"/></linearGradient><linearGradient id="e" x1="8.477" x2="14.378" y1="4.147" y2="4.147" gradientUnits="userSpaceOnUse"><stop stop-color="#1C902E"/><stop offset="1" stop-color="#2AA33E"/></linearGradient><linearGradient id="f" x1="17.725" x2="24.703" y1="15.561" y2="18.437" gradientUnits="userSpaceOnUse"><stop stop-color="#5FBD6E"/><stop offset=".25" stop-color="#73D382"/><stop offset=".566" stop-color="#85E294"/></linearGradient><linearGradient id="g" x1="21.256" x2="19.826" y1="25.057" y2="19.416" gradientUnits="userSpaceOnUse"><stop stop-color="#378544"/><stop offset=".808" stop-color="#4BA059"/><stop offset="1" stop-color="#56AE64"/></linearGradient></defs></svg>